<svg height="512" viewBox="0 0 128 128" width="512" xmlns="http://www.w3.org/2000/svg"><g><path d="m98.279 4.75h-68.558a1.75 1.75 0 0 0 -1.75 1.75v115a1.75 1.75 0 0 0 1.75 1.75h68.558a1.75 1.75 0 0 0 1.75-1.75v-115a1.75 1.75 0 0 0 -1.75-1.75zm-1.75 3.5v65.9l-5.224-6.044a1.755 1.755 0 0 0 -1.325-.606h-51.96a1.755 1.755 0 0 0 -1.325.605l-5.224 6.044v-65.899zm-65.058 111.5v-40.25l7.349-8.5h50.36l7.349 8.5v40.25z"/><path d="m92.279 92.917a1.749 1.749 0 0 0 -1.75 1.75v10.25a1.75 1.75 0 0 0 3.5 0v-10.25a1.749 1.749 0 0 0 -1.75-1.75z"/><path d="m38.721 39.947h50.558a1.749 1.749 0 0 0 1.75-1.75v-6a1.75 1.75 0 0 0 -1.75-1.75h-50.558a1.75 1.75 0 0 0 -1.75 1.75v6a1.749 1.749 0 0 0 1.75 1.75zm1.75-6h47.058v2.5h-47.058z"/><path d="m38.721 51.947h50.558a1.749 1.749 0 0 0 1.75-1.75v-6a1.75 1.75 0 0 0 -1.75-1.75h-50.558a1.75 1.75 0 0 0 -1.75 1.75v6a1.749 1.749 0 0 0 1.75 1.75zm1.75-6h47.058v2.5h-47.058z"/><path d="m64 96.058a7.75 7.75 0 1 0 7.75 7.75 7.759 7.759 0 0 0 -7.75-7.75zm0 12a4.25 4.25 0 1 1 4.25-4.25 4.255 4.255 0 0 1 -4.25 4.25z"/><path d="m41.721 24.945a4.75 4.75 0 1 0 -4.75-4.75 4.756 4.756 0 0 0 4.75 4.75zm0-6a1.25 1.25 0 1 1 -1.25 1.25 1.252 1.252 0 0 1 1.25-1.25z"/><path d="m53.723 21.945h6a1.75 1.75 0 0 0 0-3.5h-6a1.75 1.75 0 0 0 0 3.5z"/><path d="m65.723 21.945h6a1.75 1.75 0 0 0 0-3.5h-6a1.75 1.75 0 0 0 0 3.5z"/></g></svg>