<svg id="Layer_3" enable-background="new 0 0 64 64" height="512" viewBox="0 0 64 64" width="512" xmlns="http://www.w3.org/2000/svg"><g><path d="m55 1h-46c-.553 0-1 .448-1 1v60c0 .553.447 1 1 1h46c.553 0 1-.447 1-1v-60c0-.552-.447-1-1-1zm-1 2v34h-3c-.101 0-.201.016-.298.045l-3.642 1.135c3.085-3.528 4.94-8.141 4.94-13.18 0-4.389-1.438-8.44-3.845-11.741l2.305-2.305c1.435-.224 2.54-1.457 2.54-2.954 0-1.654-1.346-3-3-3h-18c-4.125 0-7.962 1.257-11.15 3.406-.492-1.952-2.248-3.406-4.35-3.406-2.481 0-4.5 2.019-4.5 4.5v15.5c0 .336.025.667.042 1h-.042v14h-2v-37zm-40 30.683c1.943 4.025 5.198 7.336 9.299 9.317h-9.299zm21.183 6.134-7.755 13.183h-2.014l-3.414-3.414v-2.014zm3.524-3.524c-.321-.322-.822-.386-1.214-.155l-10.464 6.155c-7.688-2.206-13.029-9.252-13.029-17.293 0-9.925 8.075-18 18-18s18 8.075 18 18c0 8.571-5.941 15.786-14.115 17.569l2.978-5.062c.23-.393.166-.892-.156-1.214zm-19.707-26.461c-2.087 1.792-3.791 4.006-5 6.508v-6.84c0-1.378 1.121-2.5 2.5-2.5s2.5 1.122 2.5 2.5zm31-.832c-.552 0-1-.449-1-1s.448-1 1-1 1 .449 1 1-.448 1-1 1zm-1.799 1.385-1.31 1.31c-1.742-1.947-3.854-3.547-6.231-4.695h6.524c-.112.314-.184.648-.184 1 0 .977.476 1.837 1.201 2.385zm-38.201 31.615h2v2c0 .553.447 1 1 1h9.427l-1.934 1.138c-.305.179-.493.508-.493.862v3c0 .266.105.52.293.707l4 4c.187.188.441.293.707.293h3c.354 0 .683-.188.862-.493l5.698-9.686c3.303-.421 6.324-1.628 8.895-3.421l7.697-2.4h2.848v18h-23c-.266 0-.52.105-.707.293l-3.707 3.707h-16.586zm19.414 19 2-2h22.586v2z"/><path d="m42 25c0-5.514-4.486-10-10-10s-10 4.486-10 10 4.486 10 10 10 10-4.486 10-10zm-10 8c-4.411 0-8-3.589-8-8s3.589-8 8-8 8 3.589 8 8-3.589 8-8 8z"/><path d="m35 25c0-1.654-1.346-3-3-3s-3 1.346-3 3 1.346 3 3 3 3-1.346 3-3zm-4 0c0-.551.448-1 1-1s1 .449 1 1-.448 1-1 1-1-.449-1-1z"/><path d="m32.5 21c.827 0 1.5-.673 1.5-1.5s-.673-1.5-1.5-1.5-1.5.673-1.5 1.5.673 1.5 1.5 1.5zm0-2c.275 0 .5.224.5.5s-.225.5-.5.5-.5-.224-.5-.5.225-.5.5-.5z"/><path d="m36.5 23c.827 0 1.5-.673 1.5-1.5s-.673-1.5-1.5-1.5-1.5.673-1.5 1.5.673 1.5 1.5 1.5zm0-2c.275 0 .5.224.5.5s-.225.5-.5.5-.5-.224-.5-.5.225-.5.5-.5z"/><path d="m37.5 24c-.827 0-1.5.673-1.5 1.5s.673 1.5 1.5 1.5 1.5-.673 1.5-1.5-.673-1.5-1.5-1.5zm0 2c-.275 0-.5-.224-.5-.5s.225-.5.5-.5.5.224.5.5-.225.5-.5.5z"/><path d="m35.5 28c-.827 0-1.5.673-1.5 1.5s.673 1.5 1.5 1.5 1.5-.673 1.5-1.5-.673-1.5-1.5-1.5zm0 2c-.275 0-.5-.224-.5-.5s.225-.5.5-.5.5.224.5.5-.225.5-.5.5z"/><path d="m31.5 29c-.827 0-1.5.673-1.5 1.5s.673 1.5 1.5 1.5 1.5-.673 1.5-1.5-.673-1.5-1.5-1.5zm0 2c-.275 0-.5-.224-.5-.5s.225-.5.5-.5.5.224.5.5-.225.5-.5.5z"/><path d="m27.5 27c-.827 0-1.5.673-1.5 1.5s.673 1.5 1.5 1.5 1.5-.673 1.5-1.5-.673-1.5-1.5-1.5zm0 2c-.275 0-.5-.224-.5-.5s.225-.5.5-.5.5.224.5.5-.225.5-.5.5z"/><path d="m28 24.5c0-.827-.673-1.5-1.5-1.5s-1.5.673-1.5 1.5.673 1.5 1.5 1.5 1.5-.673 1.5-1.5zm-2 0c0-.276.225-.5.5-.5s.5.224.5.5-.225.5-.5.5-.5-.224-.5-.5z"/><path d="m28.5 22c.827 0 1.5-.673 1.5-1.5s-.673-1.5-1.5-1.5-1.5.673-1.5 1.5.673 1.5 1.5 1.5zm0-2c.275 0 .5.224.5.5s-.225.5-.5.5-.5-.224-.5-.5.225-.5.5-.5z"/><path d="m16.5 8c-.827 0-1.5.673-1.5 1.5s.673 1.5 1.5 1.5 1.5-.673 1.5-1.5-.673-1.5-1.5-1.5zm0 2c-.275 0-.5-.224-.5-.5s.225-.5.5-.5.5.224.5.5-.225.5-.5.5z"/><path d="m16.5 39c-.827 0-1.5.673-1.5 1.5s.673 1.5 1.5 1.5 1.5-.673 1.5-1.5-.673-1.5-1.5-1.5zm0 2c-.275 0-.5-.225-.5-.5s.225-.5.5-.5.5.225.5.5-.225.5-.5.5z"/><circle cx="26" cy="49" r="2"/><path d="m39 56h4c.553 0 1-.447 1-1v-4c0-.553-.447-1-1-1h-1v-2h6v2h-1c-.553 0-1 .447-1 1v4c0 .553.447 1 1 1h4c.553 0 1-.447 1-1v-4c0-.553-.447-1-1-1h-1v-3c0-.553-.447-1-1-1h-8c-.553 0-1 .447-1 1v3h-1c-.553 0-1 .447-1 1v4c0 .553.447 1 1 1zm11-2h-2v-2h2zm-10-2h2v2h-2z"/><path d="m27 59v-2c0-.553-.447-1-1-1-3.859 0-7-3.141-7-7v-2c0-.553-.447-1-1-1h-5c-.553 0-1 .447-1 1v12c0 .553.447 1 1 1h13c.553 0 1-.447 1-1zm-2-1h-11v-10h3v1c0 4.625 3.506 8.445 8 8.944z"/><path d="m16.5 54c-.827 0-1.5.673-1.5 1.5s.673 1.5 1.5 1.5 1.5-.673 1.5-1.5-.673-1.5-1.5-1.5zm0 2c-.275 0-.5-.225-.5-.5s.225-.5.5-.5.5.225.5.5-.225.5-.5.5z"/><path d="m51.5 43c.827 0 1.5-.673 1.5-1.5s-.673-1.5-1.5-1.5-1.5.673-1.5 1.5.673 1.5 1.5 1.5zm0-2c.275 0 .5.225.5.5s-.225.5-.5.5-.5-.225-.5-.5.225-.5.5-.5z"/></g></svg>