<?xml version="1.0" encoding="UTF-8" standalone="no"?>
<!DOCTYPE svg PUBLIC "-//W3C//DTD SVG 1.1//EN" "http://www.w3.org/Graphics/SVG/1.1/DTD/svg11.dtd">
<svg version="1.1" xmlns="http://www.w3.org/2000/svg" xmlns:xlink="http://www.w3.org/1999/xlink" preserveAspectRatio="xMidYMid meet" viewBox="0 0 640 640" width="640" height="640"><defs><path d="M387.73 254.58L631.95 254.58L631.95 286.79L287.17 355.13L355.52 10.35L387.73 10.35L387.73 254.58Z" id="c8JkxFINU"></path><path d="M362.02 283.18L638.46 283.18L638.45 384.11L394.23 384.11L394.23 628.33L261.08 628.33L261.08 384.11L16.86 384.11L16.86 250.96L261.08 250.96L261.08 6.74L362.02 6.74L362.02 283.18Z" id="bqx0JTufn"></path><path d="M395.78 10.36C395.78 5.91 392.17 2.3 387.73 2.3C374.41 2.3 267.89 2.3 254.57 2.3C252.44 2.3 250.39 3.15 248.88 4.66C247.37 6.17 246.52 8.22 246.52 10.35C246.52 26.1 246.52 104.82 246.52 246.52C104.82 246.52 26.1 246.52 10.36 246.52C5.91 246.52 2.3 250.13 2.3 254.57C2.3 267.89 2.3 374.41 2.3 387.73C2.3 389.86 3.15 391.91 4.66 393.42C6.17 394.93 8.22 395.78 10.35 395.78C26.1 395.78 104.82 395.78 246.52 395.78C246.52 454.55 246.52 487.2 246.52 493.73C246.52 498.18 250.12 501.78 254.57 501.78C259.02 501.78 262.63 498.18 262.63 493.73C262.63 483.13 262.63 398.33 262.63 387.73C262.63 385.59 261.78 383.54 260.27 382.03C258.76 380.52 256.71 379.67 254.57 379.67C238.83 379.67 160.11 379.67 18.41 379.67L18.41 262.63C160.11 262.63 238.83 262.63 254.57 262.63C259.02 262.63 262.63 259.02 262.63 254.58C262.63 238.83 262.63 160.11 262.63 18.41L379.67 18.41C379.67 160.11 379.67 238.83 379.67 254.58C379.67 259.02 383.28 262.63 387.73 262.63C403.47 262.63 482.19 262.63 623.89 262.63L623.89 379.67C482.19 379.67 403.47 379.67 387.73 379.67C383.28 379.68 379.67 383.28 379.67 387.73C379.67 403.47 379.67 482.19 379.67 623.89L262.63 623.89C262.63 565.12 262.63 532.47 262.63 525.94C262.63 521.5 259.02 517.89 254.57 517.89C250.12 517.89 246.52 521.5 246.52 525.94C246.52 536.54 246.52 621.35 246.52 631.95C246.52 636.39 250.13 640 254.57 640C267.89 640 374.41 640 387.73 640C389.95 640 391.97 639.1 393.42 637.64C394.88 636.18 395.78 634.17 395.78 631.95C395.78 616.2 395.78 537.48 395.78 395.78C537.48 395.78 616.2 395.78 631.95 395.78C634.08 395.78 636.13 394.93 637.64 393.42C639.15 391.91 640 389.86 640 387.73C640 374.41 640 267.89 640 254.57C640 250.12 636.39 246.52 631.95 246.52C616.2 246.52 537.48 246.52 395.78 246.52C395.78 104.82 395.78 26.1 395.78 10.36Z" id="a3ryEcAwHn"></path></defs><g><g><g><use xlink:href="#c8JkxFINU" opacity="1" fill="#63af43" fill-opacity="1"></use><g><use xlink:href="#c8JkxFINU" opacity="1" fill-opacity="0" stroke="#000000" stroke-width="1" stroke-opacity="0"></use></g></g><g><use xlink:href="#bqx0JTufn" opacity="1" fill="#7ce871" fill-opacity="1"></use><g><use xlink:href="#bqx0JTufn" opacity="1" fill-opacity="0" stroke="#000000" stroke-width="1" stroke-opacity="0"></use></g></g><g><use xlink:href="#a3ryEcAwHn" opacity="1" fill="#000000" fill-opacity="1"></use><g><use xlink:href="#a3ryEcAwHn" opacity="1" fill-opacity="0" stroke="#000000" stroke-width="1" stroke-opacity="0"></use></g></g></g></g></svg>